<svg xmlns="http://www.w3.org/2000/svg" width="24" height="24" viewBox="0 0 24 24">
  <defs>
    <rect id="rect-1" width="24" height="24" x="0" y="0"/>
  </defs>
  <g>
    <rect width="24" height="24" x="0" y="0" fill="none" rx="0" ry="0"/>
    <path fill="rgb(91,108,246)" fill-rule="evenodd" d="M14.62818004 21.61668546l-9.13502936-8.5794814C5.16438356 12.73280722 5 12.3945885 5 12c.01174168-.3945885.16438356-.75535513.49315068-1.04847802l9.13502936-8.56820744C14.88649706 2.1352875 15.21526419 2 15.60273973 2 16.3776908 2 17 2.58624577 17 3.33032694c0 .36076663-.16438356.7102593-.43444227.96956032l-8.21917808 7.68883878 8.21917808 7.7113867c.2700587.25930101.43444227.59751973.43444227.96956032C17 21.41375423 16.3776908 22 15.60273973 22c-.38747554 0-.71624267-.13528749-.9745597-.38331454z"/>
  </g>
</svg>
