<svg xmlns="http://www.w3.org/2000/svg" width="20" height="14" viewBox="0 0 20 14">
  <path fill="rgb(92,109,248)" fill-rule="evenodd" d="M10 0C5.45455933 0 1.57272339 2.90267944 0 7c1.57272339 4.09732056 5.45455933 7 10 7s8.42727661-2.90267944 10-7c-1.57272339-4.09732056-5.45455933-7-10-7zm0 11.66668701C7.49093628 11.66668701 5.45455933 9.5760193 5.45455933 7c0-2.57598877 2.03637695-4.6666565 4.54544067-4.6666565 2.50909424 0 4.5454712 2.09066773 4.5454712 4.6666565 0 2.57601929-2.03637696 4.66668701-4.5454712 4.66668701zM7.2727356 7c0-1.5493164 1.21817016-2.7999878 2.7272644-2.7999878 1.50909424 0 2.72729492 1.2506714 2.72729492 2.7999878 0 1.54934692-1.21820068 2.80001831-2.72729492 2.80001831-1.50909424 0-2.7272644-1.25067139-2.7272644-2.80001831z"/>
</svg>
